<svg xmlns="http://www.w3.org/2000/svg" data-name="Layer 1" viewBox="0 0 512 640" x="0px" y="0px"><title>Guitar2</title><g data-name="Group"><path data-name="Compound Path" d="M134.808,459.179a52.941,52.941,0,0,0,52.65,13.305l1.3-.389a52.781,52.781,0,0,0,33.824-30.58l12.834-31.129a67.224,67.224,0,0,1,29.812-33.256l31.37-17.141a53.088,53.088,0,0,0,23.962-27.253l11.165-28.63-31.049,6.544a67.3,67.3,0,0,1-39.748-3.8L226.84,344.9a7,7,0,0,1-5.022,2.327c-.064,0-.129,0-.192,0a7,7,0,0,1-4.95-2.05l-40.07-40.069a7,7,0,0,1,.28-10.163l51.473-46.119,8.881-8.249-1.21-5.761a66.816,66.816,0,0,1,3.255-38.371L256.642,152.5l-49.415,20.784a53.167,53.167,0,0,0-26.18,23.846l-29.858,55.791a67.348,67.348,0,0,1-31.456,29.429L80.4,300.143a52.968,52.968,0,0,0-28.936,33.114l-.744,2.487a52.941,52.941,0,0,0,13.306,52.649Zm14.457-143.7a7,7,0,0,1,9.9,0l48.555,48.555a7,7,0,0,1-9.9,9.9L149.265,325.38A7,7,0,0,1,149.265,315.48Zm-14.143,14.143a7,7,0,0,1,9.9,0l48.555,48.554a7,7,0,0,1-9.9,9.9l-48.555-48.555A7,7,0,0,1,135.122,329.623ZM97.407,353.2a20.333,20.333,0,0,1,28.757,0l43.846,43.846a20.355,20.355,0,0,1,0,28.751c-.02.02-.04.04-.061.059a20.353,20.353,0,0,1-28.7-.054h0L97.407,381.946A20.354,20.354,0,0,1,97.407,353.2Z"/><path data-name="Path" d="M151.153,415.892h0a6.339,6.339,0,0,0,8.953,0l.037-.036a6.339,6.339,0,0,0-.033-8.92L116.264,363.09a6.333,6.333,0,0,0-8.956,8.957Z"/><path data-name="Path" d="M237.842,259.128l-.094.085-46.013,41.226,29.612,29.612,41.091-45.864.071-.078L400.432,134.722l-13.807-13.806Z"/><path data-name="Path" d="M441.155,37.291l-4.833,23.543a54.853,54.853,0,0,1-14.985,27.83c-.062.061-.123.121-.186.179l-24.262,22.539,13.047,13.046,26.457-28.657c.063-.068.128-.135.193-.2L463.51,68.646Z"/></g><text x="0" y="527" fill="#000000" font-size="5px" font-weight="bold" font-family="'Helvetica Neue', Helvetica, Arial-Unicode, Arial, Sans-serif">Created by Shastry</text><text x="0" y="532" fill="#000000" font-size="5px" font-weight="bold" font-family="'Helvetica Neue', Helvetica, Arial-Unicode, Arial, Sans-serif">from the Noun Project</text></svg>