<svg xmlns="http://www.w3.org/2000/svg" xmlns:xlink="http://www.w3.org/1999/xlink" xml:space="preserve" style="shape-rendering:geometricPrecision;text-rendering:geometricPrecision;image-rendering:optimizeQuality;" viewBox="0 0 0.305094 0.39386375" x="0px" y="0px" fill-rule="evenodd" clip-rule="evenodd"><defs><style type="text/css">
   
    .fil0 {fill:black}
   
  </style></defs><g><path class="fil0" d="M0.160108 0.137726c0.0333823,-0.0333784 0.0456423,-0.000303154 0.0615362,0.0255043 0.00615362,0.00694497 0.0183309,0.00861428 0.028213,0.0106694 0.109706,0.022768 0.0340004,0.147648 -0.0377721,0.140927 -0.0297248,-0.00279137 -0.0440951,-0.0331737 -0.0506778,-0.0586464 -0.0024646,-0.00954737 -0.00148427,-0.0209373 -0.00753947,-0.0296894 -0.00611032,-0.0111261 -0.0359926,-0.010508 -0.0372761,-0.0305555 -0.000952768,-0.0149057 0.0334217,-0.0140396 0.0157758,-0.0328311 0.00262996,-0.00237798 0.00763002,-0.00633473 0.00913398,-0.00779144 0.0239019,0.028276 -0.0233271,0.0292208 -0.0230082,0.0405005 0.00179924,0.0179766 0.0311461,0.0189412 0.0369217,0.0295398 0.0063426,0.0089883 0.00543314,0.0210436 0.00783868,0.0303508 0.0114923,0.0445006 0.0361855,0.0655638 0.0767569,0.0536897 -0.0250751,0.0052796 -0.0506975,-0.00813396 -0.0631465,-0.0563432 -0.00240554,-0.00931114 -0.000196853,-0.0224452 -0.00783475,-0.0303508 -0.00577567,-0.0105986 -0.0351225,-0.0115631 -0.0369217,-0.0295398 -0.000318902,-0.0112797 0.0360871,-0.0100592 0.0121891,-0.0383391l0.0218704 0.0226066c-0.00309059,0.00901193 -0.000763789,0.0197365 0.00681111,0.0273153 0.0103584,0.0103584 0.0266066,0.0109017 0.0362957,0.00121261 0.00968123,-0.00968123 0.00914185,-0.0259295 -0.00122049,-0.0362918 -0.00654339,-0.00654339 -0.0154372,-0.00916547 -0.0235475,-0.00776782l-0.024398 -0.0241696zm0.0792963 0.0772648l-0.0199727 0.0206459 0.00126773 0.00126773 0.0199766 -0.020642 -0.00127167 -0.00127167zm0.0125277 -0.00631111l-0.0058111 -0.00593708 -0.000637804 -0.000657489 -0.000645678 0.000661426 -0.0392289 0.0405517 -0.00060237 0.000625992 0.000598433 0.000622055 0.00619693 0.00645678 0.000653552 0.000681111 0.000645678 -0.000685048 0.00484652 -0.00512605c0.00744892,-0.00283075 0.013571,-0.00692529 0.018453,-0.0121773 0.00487014,-0.00524023 0.00851979,-0.0116301 0.0110513,-0.0190199l0.00448825 -0.00474809 0.000598433 -0.000629929 -0.000606307 -0.000618118zm-0.0064489 -0.00401974l0.00455911 0.00465754 -0.00403155 0.00426777 -0.00020079 0.000330713c-0.00245672,0.00723238 -0.00598827,0.0134726 -0.0107245,0.0185554 -0.00472841,0.00508274 -0.0106852,0.00905917 -0.0179648,0.0117915l-0.000330713 0.000220475 -0.00434651 0.00459848 -0.00494495 -0.00515755 0.0379847 -0.0392643z"/><polygon class="fil0" points="0.07356,0.0546857 0.0607449,0.0419927 0.0490794,0.0536582 0.0617567,0.0667646 "/><polygon class="fil0" points="0.085883,0.0668946 0.0744537,0.0555716 0.0626347,0.0676741 0.0738199,0.0792372 "/><polygon class="fil0" points="0.0974028,0.0783042 0.0867767,0.0677804 0.0746939,0.0801428 0.0850995,0.0908988 "/><polygon class="fil0" points="0.108013,0.0888122 0.0982965,0.0791939 0.0859775,0.0918043 0.0954894,0.101631 "/><polygon class="fil0" points="0.117954,0.0986548 0.108907,0.089698 0.0963634,0.102537 0.105218,0.11169 "/><polygon class="fil0" points="0.12775,0.108364 0.118844,0.0995407 0.106092,0.112596 0.114813,0.121604 "/><polygon class="fil0" points="0.135832,0.116364 0.128647,0.109249 0.115683,0.122509 0.122722,0.129785 "/><polygon class="fil0" points="0.143581,0.124041 0.136726,0.117253 0.123596,0.130691 0.130305,0.137624 "/><polygon class="fil0" points="0.150596,0.130986 0.144478,0.124927 0.131183,0.138533 0.137175,0.144726 "/><polygon class="fil0" points="0.156557,0.136884 0.15149,0.131872 0.138049,0.145632 0.143006,0.150754 "/><polygon class="fil0" points="0.161313,0.141596 0.157451,0.137769 0.14388,0.151659 0.147715,0.15562 "/><polygon class="fil0" points="0.165683,0.145927 0.162207,0.142482 0.148589,0.156526 0.151994,0.160045 "/><polygon class="fil0" points="0.169329,0.149541 0.166577,0.146813 0.152868,0.160947 0.155565,0.16373 "/><polygon class="fil0" points="0.172908,0.153089 0.170223,0.150427 0.156439,0.164636 0.159069,0.167356 "/><path class="fil0" d="M0.182506 0.162593l-0.0087009 -0.00862216 -0.0138584 0.0142915 0.00715757 0.00739773c0.00113781,-0.00250397 0.00273626,-0.00485439 0.00482683,-0.00694103 0.00307878,-0.00307878 0.00671269,-0.00509062 0.0105749,-0.00612606z"/><path class="fil0" d="M0.0589456 0.0408627c-0.00353154,-0.00343312 -0.00601189,-0.00672843 -0.0051418,-0.00962611l-0.0349532 -0.0312366 -0.0188506 0.0181853 0.0344926 0.0295437c0.00592134,-0.000913398 0.0105356,0.000295279 0.0136419,0.00394493l0.0108112 -0.0108112zm-0.0468667 -0.0225593c-0.000783475,-0.000787412 -0.00205908,-0.000787412 -0.00284256,0 -0.000783475,0.000783475 -0.000783475,0.00205908 0,0.00284256 0.000783475,0.000787412 0.00205908,0.000787412 0.00284256,0 0.000787412,-0.000783475 0.000787412,-0.00205908 0,-0.00284256zm0.0109214 0.00954737c-0.000783475,-0.000783475 -0.00205908,-0.000783475 -0.00284256,0 -0.000783475,0.000783475 -0.000783475,0.00206302 0,0.00284649 0.000783475,0.000783475 0.00205908,0.000783475 0.00284256,0 0.000787412,-0.000783475 0.000787412,-0.00206302 0,-0.00284649zm0.0112403 0.0100749c-0.000787412,-0.000783475 -0.00206302,-0.000783475 -0.00284649,0 -0.000783475,0.000787412 -0.000783475,0.00206302 0,0.00284649 0.000783475,0.000783475 0.00205908,0.000783475 0.00284649,0 0.000783475,-0.000783475 0.000783475,-0.00205908 0,-0.00284649zm-0.0109765 -0.0308075c-0.000783475,-0.000783475 -0.00205908,-0.000783475 -0.00284649,0 -0.000783475,0.000783475 -0.000783475,0.00205908 0,0.00284649 0.000787412,0.000783475 0.00206302,0.000783475 0.00284649,0 0.000783475,-0.000787412 0.000783475,-0.00206302 0,-0.00284649zm0.0109214 0.0095513c-0.000783475,-0.000787412 -0.00205908,-0.000787412 -0.00284649,0 -0.000783475,0.000783475 -0.000783475,0.00205908 0,0.00284256 0.000787412,0.000787412 0.00206302,0.000787412 0.00284649,0 0.000783475,-0.000783475 0.000783475,-0.00205908 0,-0.00284256zm0.0112364 0.0100749c-0.000783475,-0.000783475 -0.00205908,-0.000783475 -0.00284649,0 -0.000783475,0.000783475 -0.000783475,0.00205908 0,0.00284649 0.000787412,0.000783475 0.00206302,0.000783475 0.00284649,0 0.000783475,-0.000787412 0.000783475,-0.00206302 0,-0.00284649z"/><path class="fil0" d="M0.20627 0.171447c-0.00930327,-0.00930327 -0.0238979,-0.00979146 -0.0325988,-0.00109057 -0.0087009,0.0087009 -0.00821664,0.0232956 0.00109057,0.0326028 0.00930721,0.00931114 0.0239058,0.0097954 0.0326067,0.0010945 0.0087009,-0.00870484 0.0082127,-0.0232956 -0.00109844,-0.0326067zm-0.00209452 0.00210239c-0.0080631,-0.0080631 -0.0207129,-0.00849224 -0.0282563,-0.000948831 -0.0075434,0.0075434 -0.0071182,0.0201932 0.000944894,0.0282602 0.0080631,0.0080631 0.0207168,0.0084883 0.0282602,0.000940957 0.0075434,-0.00753947 0.00711427,-0.0201892 -0.000948831,-0.0282523z"/><path class="fil0" d="M0.051166 0.0212089c-0.000783475,-0.000783475 -0.00205908,-0.000783475 -0.00284256,0 -0.000787412,0.000787412 -0.000787412,0.00206302 0,0.00284649 0.000783475,0.000783475 0.00205908,0.000783475 0.00284256,0 0.000787412,-0.000783475 0.000787412,-0.00205908 0,-0.00284649z"/><path class="fil0" d="M0.0399296 0.011134c-0.000783475,-0.000783475 -0.00205908,-0.000783475 -0.00284649,0 -0.000783475,0.000783475 -0.000783475,0.00205908 0,0.00284649 0.000787412,0.000783475 0.00206302,0.000783475 0.00284649,0 0.000783475,-0.000787412 0.000783475,-0.00206302 0,-0.00284649z"/><path class="fil0" d="M0.0290082 0.0015827c-0.000783475,-0.000783475 -0.00205908,-0.000783475 -0.00284649,0 -0.000783475,0.000787412 -0.000783475,0.00206302 0,0.00284649 0.000787412,0.000783475 0.00206302,0.000783475 0.00284649,0 0.000783475,-0.000783475 0.000783475,-0.00205908 0,-0.00284649z"/><path class="fil0" d="M0.0282287 0.0441502c-0.000787412,-0.000783475 -0.00206302,-0.000783475 -0.00284649,0 -0.000783475,0.000783475 -0.000783475,0.00205908 0,0.00284649 0.000783475,0.000783475 0.00205908,0.000783475 0.00284649,0 0.000783475,-0.000787412 0.000783475,-0.00206302 0,-0.00284649z"/><path class="fil0" d="M0.0169884 0.0340752c-0.000783475,-0.000783475 -0.00205908,-0.000783475 -0.00284256,0 -0.000787412,0.000783475 -0.000787412,0.00205908 0,0.00284256 0.000783475,0.000787412 0.00205908,0.000787412 0.00284256,0 0.000787412,-0.000783475 0.000787412,-0.00205908 0,-0.00284256z"/><path class="fil0" d="M0.00606701 0.0245239c-0.000783475,-0.000783475 -0.00205908,-0.000783475 -0.00284256,0 -0.000787412,0.000783475 -0.000787412,0.00206302 0,0.00284649 0.000783475,0.000783475 0.00205908,0.000783475 0.00284256,0 0.000787412,-0.000783475 0.000787412,-0.00206302 0,-0.00284649z"/></g><text x="0" y="15.315091" fill="#000000" font-size="5px" font-weight="bold" font-family="'Helvetica Neue', Helvetica, Arial-Unicode, Arial, Sans-serif">Created by Mr Balind</text><text x="0" y="20.315091000000002" fill="#000000" font-size="5px" font-weight="bold" font-family="'Helvetica Neue', Helvetica, Arial-Unicode, Arial, Sans-serif">from the Noun Project</text></svg>